<svg width="1200" height="720" viewBox="0 0 1200 720" xmlns="http://www.w3.org/2000/svg">
  <rect width="1200" height="720" fill="#080c12"/>
  <rect width="230" height="720" fill="#0c1119"/><text x="28" y="60" fill="#fff" font-family="Arial" font-size="24" font-weight="700">Forge AI</text>
  <text x="35" y="135" fill="#8d97aa" font-family="Arial" font-size="16">Chat</text><text x="35" y="180" fill="#8d97aa" font-family="Arial" font-size="16">Dashboard</text><text x="35" y="225" fill="#8d97aa" font-family="Arial" font-size="16">Connections</text><text x="35" y="270" fill="#8d97aa" font-family="Arial" font-size="16">Usage</text><rect x="18" y="325" width="194" height="42" rx="8" fill="#172334"/><text x="35" y="352" fill="#fff" font-family="Arial" font-size="16">Settings</text>
  <text x="275" y="65" fill="#eef2fb" font-family="Arial" font-size="30" font-weight="700">Application settings</text><text x="275" y="95" fill="#8b98ad" font-family="Arial" font-size="15">Configure appearance, fallback routing, and context limits.</text>
  <rect x="275" y="130" width="875" height="535" rx="14" fill="#0f1620" stroke="#243244"/><text x="305" y="178" fill="#eef2fb" font-family="Arial" font-size="21" font-weight="700">Appearance</text><rect x="305" y="205" width="100" height="38" rx="8" fill="#173456" stroke="#2f80ed"/><text x="338" y="230" fill="#fff" font-family="Arial" font-size="14">Dark</text><rect x="415" y="205" width="100" height="38" rx="8" fill="#101824" stroke="#315078"/><text x="448" y="230" fill="#b8c7da" font-family="Arial" font-size="14">Light</text>
  <line x1="305" y1="275" x2="1120" y2="275" stroke="#26384d"/><text x="305" y="318" fill="#eef2fb" font-family="Arial" font-size="21" font-weight="700">Fallback routing</text><rect x="305" y="340" width="18" height="18" rx="4" fill="#2f80ed"/><text x="338" y="355" fill="#aab7ca" font-family="Arial" font-size="14">Retry another enabled provider after errors</text><rect x="305" y="380" width="500" height="72" rx="8" fill="#0b1119" stroke="#334356"/><text x="325" y="410" fill="#eef2fb" font-family="Arial" font-size="14">1. Local Ollama</text><text x="325" y="435" fill="#8b98ad" font-family="Arial" font-size="14">2. OpenAI</text>
  <line x1="305" y1="485" x2="1120" y2="485" stroke="#26384d"/><text x="305" y="528" fill="#eef2fb" font-family="Arial" font-size="21" font-weight="700">Context management</text><rect x="305" y="550" width="235" height="42" rx="8" fill="#0b1119" stroke="#334356"/><text x="325" y="576" fill="#eef2fb" font-family="Arial" font-size="14">12,000 token budget</text><rect x="555" y="550" width="235" height="42" rx="8" fill="#0b1119" stroke="#334356"/><text x="575" y="576" fill="#eef2fb" font-family="Arial" font-size="14">24 messages</text><rect x="970" y="600" width="150" height="42" rx="8" fill="#2f80ed"/><text x="995" y="627" fill="#fff" font-family="Arial" font-size="14" font-weight="700">Save settings</text>
</svg>
